Coordinates
version=1
nRows=11
nColumns=40
inDegrees=yes

Units are S.I. units (second, meters, Newtons, ...)
Angles are in degrees.

endheader
time	pelvis_tilt	pelvis_list	pelvis_rotation	pelvis_tx	pelvis_ty	pelvis_tz	hip_flexion_r	hip_adduction_r	hip_rotation_r	knee_angle_r	knee_angle_r_beta	ankle_angle_r	subtalar_angle_r	mtp_angle_r	hip_flexion_l	hip_adduction_l	hip_rotation_l	knee_angle_l	knee_angle_l_beta	ankle_angle_l	subtalar_angle_l	mtp_angle_l	lumbar_extension	lumbar_bending	lumbar_rotation	arm_flex_r	arm_add_r	arm_rot_r	elbow_flex_r	pro_sup_r	wrist_flex_r	wrist_dev_r	arm_flex_l	arm_add_l	arm_rot_l	elbow_flex_l	pro_sup_l	wrist_flex_l	wrist_dev_l
     50.07500000	     -4.87193939	     -6.56904196	      3.34937434	      1.12744427	      0.93151048	      0.51208244	      8.81751439	      6.37925740	    -16.73338457	     12.83902549	     12.83902549	     10.64711411	      0.94930592	     -2.28660207	     37.03270850	    -13.53400413	      3.25541997	     54.79009648	     54.79009648	      8.37650684	    -18.66252357	     16.29180762	     -9.36970587	      5.88722127	      3.10644425	     26.72533159	    -15.28004201	     -4.39226282	     56.45428698	     45.40292886	      0.00000000	      0.00000000	      7.66903974	     -7.18747179	     -5.09861250	     26.14244266	     46.75004950	      0.00000000	      0.00000000
     50.08685714	     -4.90716284	     -6.07172926	      3.54572853	      1.12574902	      0.93180587	      0.51187552	      7.87307580	      5.97930080	    -16.67631751	     12.06057711	     12.06057711	     10.86139075	      1.26831660	     -2.27882474	     37.31139043	    -12.58726192	      2.75591955	     50.67861439	     50.67861439	      8.36650316	    -18.72301654	     16.40838237	     -9.66977220	      5.31707491	      2.12880588	     29.66831810	    -14.72366583	     -4.47316008	     59.59923613	     45.31097595	      0.00000000	      0.00000000	      5.90465795	     -7.13537202	     -4.81217162	     24.04252017	     46.66980553	      0.00000000	      0.00000000
     50.09871429	     -5.23106480	     -6.22943862	      3.75126154	      1.12392639	      0.93097362	      0.51179848	      7.58774378	      6.18505878	    -16.80749559	     11.85893839	     11.85893839	     11.17989259	      1.32263629	     -2.42848622	     38.11737132	    -12.23784057	      2.74984545	     46.71795118	     46.71795118	      8.74426469	    -17.87380760	     16.49086691	     -9.40447103	      5.47767607	      2.56131238	     32.04545241	    -15.39946514	     -4.74511918	     60.99893324	     45.28552322	      0.00000000	      0.00000000	      4.44553113	     -6.70083172	     -4.71751821	     23.21529369	     46.62327223	      0.00000000	      0.00000000
     50.11057143	     -5.26946530	     -5.93480766	      3.97127898	      1.12248203	      0.93085252	      0.51136814	      6.64044266	      5.95861835	    -17.03657571	     11.10196506	     11.10196506	     11.46185619	      2.02741658	     -2.56393322	     38.03745636	    -11.37079723	      2.59318388	     42.06450793	     42.06450793	      8.64411263	    -17.12307222	     15.70091064	     -9.63504038	      5.15714161	      1.84998103	     34.36457255	    -14.81787529	     -4.64541727	     64.59575968	     45.17080875	      0.00000000	      0.00000000	      2.80487407	     -6.65131569	     -4.35691326	     21.44838973	     46.52462324	      0.00000000	      0.00000000
     50.12242857	     -5.47815680	     -6.01219421	      4.13517286	      1.12110650	      0.92996501	      0.51095072	      6.00753312	      6.07570547	    -17.47338123	     10.56878498	     10.56878498	     11.73992771	      2.88474487	     -2.95854160	     37.99168023	    -10.98496413	      2.42681327	     37.04285740	     37.04285740	      6.42024257	    -16.06470706	      9.10034713	     -9.58680020	      5.31790239	      2.98835915	     35.23529159	    -16.28025063	     -5.09449229	     69.90359104	     45.15091769	      0.00000000	      0.00000000	      1.63182469	     -6.75990704	      1.87058370	     20.61655664	     45.18429870	      0.00000000	      0.00000000
     50.13428571	     -5.74148331	     -5.99052825	      4.26550788	      1.11972881	      0.92901291	      0.51046246	      5.49448313	      6.09956945	    -17.54435984	     10.15771072	     10.15771072	     12.08903262	      3.16655918	     -3.07748492	     38.08876789	    -10.47539582	      2.32117663	     32.52535903	     32.52535903	      6.85500299	    -13.78423145	      9.33690752	     -9.39814956	      5.28656949	      3.17834056	     37.60109629	    -16.50236466	     -5.34491151	     71.41645860	     45.12187446	      0.00000000	      0.00000000	      0.06106869	     -6.48512056	      1.92887543	     20.15269187	     45.14530586	      0.00000000	      0.00000000
     50.14614286	     -5.81479374	     -6.08982969	      4.40076840	      1.11877196	      0.92809018	      0.50984137	      4.60513527	      6.28700763	    -17.92407635	      9.47229550	      9.47229550	     12.46125357	      3.98116203	     -3.17660569	     37.92470492	    -10.21003777	      1.92875332	     28.17774992	     28.17774992	      7.31681139	    -10.88622575	      9.22015246	     -9.39554923	      5.47501879	      2.99383501	     39.89916191	    -16.36518236	     -5.44833086	     73.76204416	     45.06248555	      0.00000000	      0.00000000	     -1.84588054	     -6.28938420	      2.04966468	     20.06162669	     45.08105659	      0.00000000	      0.00000000
     50.15800000	     -5.96055378	     -6.21440893	      4.49571856	      1.11793951	      0.92693932	      0.50916402	      3.81726028	      6.47487142	    -18.24539331	      8.84517863	      8.84517863	     12.79743939	      4.94229478	     -3.21161078	     37.79146491	     -9.98232537	      1.50240767	     24.10696607	     24.10696607	      7.60960062	     -7.89486332	      9.26064206	     -9.33871213	      5.64689572	      3.09065977	     41.96737645	    -16.49754319	     -5.49101733	     76.06464394	     45.00664777	      0.00000000	      0.00000000	     -3.86530241	     -6.13616898	      2.29263476	     20.65948112	     44.97957204	      0.00000000	      0.00000000
     50.16985714	     -6.11089550	     -6.25855485	      4.54992804	      1.11728430	      0.92565930	      0.50831410	      3.11825414	      6.56512961	    -18.28804888	      8.41687915	      8.41687915	     13.20863354	      5.32548928	     -3.30048945	     37.55378471	     -9.63124565	      1.10791672	     20.32739820	     20.32739820	      7.74816968	     -5.62273690	      9.86876657	     -9.16245797	      5.72622932	      3.30431023	     44.02510700	    -16.68502722	     -5.62118516	     77.44473030	     44.97864245	      0.00000000	      0.00000000	     -5.51170362	     -5.91948191	      2.42611551	     20.61907870	     44.91446965	      0.00000000	      0.00000000
     50.18171429	     -6.15598140	     -6.36026998	      4.60612968	      1.11693045	      0.92434897	      0.50738078	      2.22017070	      6.74005508	    -18.42013188	      7.85853962	      7.85853962	     13.61666911	      5.94347571	     -3.34373871	     37.32296510	     -9.39897468	      0.46594633	     17.28293111	     17.28293111	      7.89524332	     -3.52180678	     10.59552643	     -9.09472467	      5.88757542	      3.33958066	     46.03483731	    -16.68807872	     -5.66215192	     79.04284323	     44.94120768	      0.00000000	      0.00000000	     -7.35370828	     -5.72844321	      2.58888928	     20.77781591	     44.83436373	      0.00000000	      0.00000000
     50.19357143	     -6.18661612	     -6.52298685	      4.68707490	      1.11681724	      0.92287919	      0.50624650	      1.25776972	      6.96102464	    -18.79202787	      7.24209086	      7.24209086	     14.07281613	      6.98202290	     -3.19990726	     37.32842942	     -9.25804368	     -0.38319674	     15.29502583	     15.29502583	      8.31182708	     -1.62655325	     11.71313584	     -9.03703654	      6.16395653	      3.21424022	     47.94741595	    -16.55869548	     -5.47227325	     81.01850256	     44.89408779	      0.00000000	      0.00000000	     -9.61990177	     -5.65989667	      3.12909416	     22.29136288	     44.65565593	      0.00000000	      0.00000000
